<svg width="15" height="15" viewBox="0 0 15 15" fill="none" xmlns="http://www.w3.org/2000/svg">
<path d="M14.8405 12.7532H14.8331C12.6485 8.6663 10.4492 4.59483 8.25727 0.531061C7.88088 -0.17702 7.13547 -0.17702 6.75908 0.531061C4.545 4.61792 2.34567 8.70478 0.153735 12.7839C-0.215279 13.4612 0.102073 14 0.869621 14H14.1246C14.9069 14 15.2169 13.4612 14.8405 12.7532ZM7.50448 12.4838C7.04691 12.4838 6.69265 12.1374 6.70741 11.6987C6.70741 11.2754 7.04691 10.983 7.50448 10.9676C7.96206 10.9676 8.29417 11.2754 8.30155 11.6987C8.30155 12.1374 7.96206 12.4838 7.50448 12.4838ZM8.21299 9.19736H8.19085C8.15395 9.65915 7.8735 9.95162 7.54139 9.95162H7.46758C7.13547 9.95162 6.84764 9.65915 6.81812 9.19736C6.70741 7.47334 6.58933 5.74931 6.50077 4.03299C6.47863 3.46344 6.94358 2.98626 7.48972 2.97086H7.54139C8.08753 2.97086 8.55986 3.44805 8.53034 4.03299C8.44178 5.75701 8.32369 7.48103 8.21299 9.19736Z" fill="white"/>
</svg>
