<svg width="16" height="15" viewBox="0 0 16 15" fill="none" xmlns="http://www.w3.org/2000/svg">
<g clip-path="url(#clip0_39_35)">
<path d="M8.41998 0C4.27998 0 0.919983 3.36 0.919983 7.5C0.919983 11.64 4.27998 15 8.41998 15C12.56 15 15.92 11.64 15.92 7.5C15.92 3.36 12.56 0 8.41998 0ZM12.66 8H8.91998V11.74C8.91998 12.02 8.69998 12.24 8.41998 12.24C8.13998 12.24 7.91998 12.02 7.91998 11.74V8H4.17998C3.89998 8 3.67998 7.78 3.67998 7.5C3.67998 7.22 3.89998 7 4.17998 7H7.91998V3.26C7.91998 2.98 8.13998 2.76 8.41998 2.76C8.69998 2.76 8.91998 2.98 8.91998 3.26V7H12.66C12.94 7 13.16 7.22 13.16 7.5C13.16 7.78 12.94 8 12.66 8Z" fill="#231F20"/>
</g>
<defs>
<clipPath id="clip0_39_35">
<rect width="15" height="15" fill="white" transform="translate(0.919983)"/>
</clipPath>
</defs>
</svg>
