<svg width="15" height="15" viewBox="0 0 15 15" fill="none" xmlns="http://www.w3.org/2000/svg">
<g clip-path="url(#clip0_33_21)">
<path d="M14.3983 1.57521L13.3069 0.468308C12.4534 -0.227056 11.194 -0.14191 10.5364 0.652792L9.48694 1.68874L13.3489 5.60549L14.4123 4.52696C15.2239 3.70388 15.2239 2.38411 14.4123 1.56102L14.3983 1.57521Z" fill="black"/>
<path d="M2.21085 8.88363H2.19685L1.69312 9.36613C1.62316 9.43708 1.58118 9.50804 1.5532 9.60737L0.0280105 14.2195C-0.0419521 14.4324 0.014018 14.6594 0.167936 14.8155C0.279876 14.929 0.433794 15 0.587712 15C0.643682 15 0.699652 15 0.755622 14.9716L5.41514 13.5525C5.51308 13.5241 5.59704 13.4674 5.65301 13.4106L5.97484 13.0842L6.15674 12.8997L12.3694 6.59886L8.49349 2.66792L2.21085 8.88363Z" fill="black"/>
</g>
<defs>
<clipPath id="clip0_33_21">
<rect width="15" height="15" fill="white"/>
</clipPath>
</defs>
</svg>
