<svg width="16" height="15" viewBox="0 0 16 15" fill="none" xmlns="http://www.w3.org/2000/svg">
<g clip-path="url(#clip0_33_29)">
<path d="M14.4783 1.5752L13.3869 0.468293C12.5334 -0.227072 11.274 -0.141925 10.6164 0.652777L9.56696 1.68873L13.4289 5.60547L14.4923 4.52695C15.3039 3.70387 15.3039 2.38409 14.4923 1.56101L14.4783 1.5752Z" fill="white"/>
<path d="M2.29086 8.88361H2.27687L1.77314 9.36611C1.70318 9.43707 1.6612 9.50802 1.63321 9.60736L0.108028 14.2195C0.0380649 14.4323 0.0940351 14.6594 0.247953 14.8155C0.359893 14.929 0.513811 15 0.667729 15C0.723699 15 0.779669 15 0.83564 14.9716L5.49515 13.5525C5.5931 13.5241 5.67706 13.4673 5.73303 13.4106L6.05486 13.0842L6.23676 12.8997L12.4494 6.59884L8.57351 2.66791L2.29086 8.88361Z" fill="white"/>
</g>
<defs>
<clipPath id="clip0_33_29">
<rect width="15" height="15" fill="white" transform="translate(0.0800171)"/>
</clipPath>
</defs>
</svg>
