<svg width="15" height="15" viewBox="0 0 15 15" fill="none" xmlns="http://www.w3.org/2000/svg">
<g clip-path="url(#clip0_50_39)">
<path d="M7.5 2.58002C1.79 2.58002 0 7.50002 0 7.50002C0 7.50002 1.79 12.42 7.5 12.42C13.21 12.42 15 7.50002 15 7.50002C15 7.50002 13.21 2.58002 7.5 2.58002ZM7.5 10.87C5.64 10.87 4.13 9.36002 4.13 7.50002C4.13 5.64002 5.64 4.13002 7.5 4.13002C9.36 4.13002 10.87 5.64002 10.87 7.50002C10.87 9.36002 9.36 10.87 7.5 10.87Z" fill="black"/>
<path d="M7.49998 9.27001C8.47752 9.27001 9.26998 8.47756 9.26998 7.50001C9.26998 6.52247 8.47752 5.73001 7.49998 5.73001C6.52244 5.73001 5.72998 6.52247 5.72998 7.50001C5.72998 8.47756 6.52244 9.27001 7.49998 9.27001Z" fill="black"/>
</g>
<defs>
<clipPath id="clip0_50_39">
<rect width="15" height="15" fill="white"/>
</clipPath>
</defs>
</svg>
