<?xml version="1.0" encoding="utf-8"?>
<!-- Generator: Adobe Illustrator 27.9.1, SVG Export Plug-In . SVG Version: 6.00 Build 0)  -->
<svg version="1.1" id="Layer_1" xmlns="http://www.w3.org/2000/svg" xmlns:xlink="http://www.w3.org/1999/xlink" x="0px" y="0px"
	 viewBox="0 0 170.7 56.3" style="enable-background:new 0 0 170.7 56.3;" xml:space="preserve">
<style type="text/css">
	.st0{fill:#EC4599;}
	.st1{fill:#FFFFFF;}
	.st2{fill:none;stroke:#000000;stroke-linecap:round;stroke-linejoin:round;stroke-miterlimit:10;}
	.st3{fill:#EF6FAA;}
	.st4{fill:#F9C2D6;}
	.st5{fill:#FCD8DD;}
	.st6{fill:#BABABB;}
	.st7{fill:#F5F6F6;}
	.st8{fill:#1979B9;}
	.st9{fill:none;stroke:#BABABB;stroke-miterlimit:10;}
	.st10{fill:none;stroke:#EB4798;stroke-miterlimit:10;}
</style>
<g>
	<g>
		<path class="st1" d="M10.7,55.4c-3.6,0-7.1,0-10.7,0C0,37.4,0,19.3,0,1c2.9,0,5.7-0.1,8.5,0.1c0.5,0,1.1,0.7,1.3,1.3
			c3.3,7.7,6.6,15.4,9.9,23.1c0.2,0.4,0.4,0.9,0.9,1.2c0-8.5,0-17,0-25.6c3.7,0,7.2,0,10.8,0c0,18.1,0,36.2,0,54.5
			c-2.9,0-5.7,0.1-8.5-0.1c-0.4,0-1-0.7-1.2-1.2c-3.5-7.8-6.9-15.7-10.3-23.5c-0.1-0.3-0.3-0.7-0.8-0.9
			C10.7,38.3,10.7,46.8,10.7,55.4z"/>
		<path class="st1" d="M102.1,23.6c3.1-7,6.3-14.1,9.3-21.1c0.5-1.2,1.1-1.5,2.3-1.5c3,0.1,6,0,9.3,0c-1.4,3-2.8,5.8-4.1,8.7
			c-2,4.1-4,8.3-6,12.4c-0.6,1.1-0.6,2.1-0.1,3.2c3.9,9.6,7.7,19.3,11.6,29c0.1,0.3,0.2,0.6,0.4,1.2c-2.8,0-5.5,0-8.2,0
			c-3.5,0-3.5,0-4.8-3.3c-2-5.1-4-10.3-6.1-15.4c-0.1-0.3-0.2-0.5-0.3-0.7c-4.9,5.7-3.4,12.6-3.6,19.2c-3.6,0-7.2,0-10.8,0
			c0-18.1,0-36.1,0-54.3c3.6,0,7.1,0,10.8,0c0,7.5,0,15,0,22.4C101.9,23.5,102,23.6,102.1,23.6z"/>
		<path class="st1" d="M138.1,37.8c3.7,0,7.1,0,10.6,0c0.1,1.1,0.2,2.2,0.4,3.2c0.5,2.6,2.2,4.2,4.8,4.5c2.2,0.3,4.4-1,5.4-3
			c1-2.1,0.7-4.6-1.2-6.3c-1.3-1.1-2.9-1.9-4.4-2.7c-3.2-1.7-6.6-3-9.5-5.1c-5.1-3.6-7.3-10.6-5.4-16.7c2-6.3,6.3-10.3,13-11.5
			c9.3-1.7,19.9,5.9,18.7,18.3c-3.5,0-7,0-10.5,0c-0.1-1.1-0.2-2.2-0.4-3.2c-0.5-2.6-2.4-4.3-5-4.5c-2-0.2-4.3,1.2-5.3,3.3
			c-1,2.2-0.5,4.8,1.6,6.4c1.5,1.1,3.2,2,4.9,2.7c4.2,1.8,8.4,3.3,11.3,7c3.7,4.8,4.4,10.1,2.3,15.6c-2.2,5.7-6.5,9.3-12.7,10.2
			c-9.4,1.5-16.9-5.2-18.3-12.5C138.2,41.8,138.2,39.8,138.1,37.8z"/>
		<path class="st1" d="M75.4,34.4c3.7,0,7.2,0,10.7,0c0.4,6,0.3,11.7-3.6,16.7c-2.4,3-5.7,4.7-9.5,5c-11,1-16.9-5.7-17.7-15.4
			c-0.5-6.9-0.4-13.8-0.3-20.8c0-2.8,0.5-5.7,1.3-8.5c1.9-7.2,7.4-11,14.9-10.9c9.2,0.1,14.3,6.4,15.1,15c0.2,2.2,0,4.4,0,6.6
			c-3.7,0-7.2,0-10.7,0c-0.1-2.6-0.2-5.1-0.4-7.6c-0.2-2.6-1.6-4.1-3.7-4.2c-2.6-0.1-4.1,0.9-4.6,3.7c-0.5,3.4-1,6.9-1,10.3
			c0,5.5,0.4,11.1,0.6,16.6c0,0.8,0.2,1.6,0.4,2.4c0.6,2.1,2.2,3.2,4.2,3.1c2-0.1,3.6-1.3,4-3.4c0.2-1.2,0.3-2.4,0.4-3.6
			C75.4,37.7,75.4,36.1,75.4,34.4z"/>
		<path class="st1" d="M130.6,0.9c3.5,0,6.3,2.8,6.3,6.2c0,3.3-3,6.3-6.3,6.3c-3.4,0-6.2-2.8-6.2-6.3C124.3,3.5,127,0.9,130.6,0.9z"
			/>
		<g>
			<path class="st1" d="M48.8,39.5c-3.5,0-7,0-10.6,0c0-12.7,0-25.5,0-38.3c3.4,0,6.9,0,10.6,0C48.8,13.9,48.8,26.6,48.8,39.5z"/>
			<path class="st1" d="M49.8,50c0,3.5-2.7,6.2-6.3,6.2c-3.5,0-6.3-2.9-6.3-6.3c0.1-3.4,3-6.3,6.4-6.2C47,43.7,49.8,46.5,49.8,50z"
				/>
		</g>
	</g>
</g>
</svg>
