<?xml version="1.0" encoding="utf-8"?>
<!-- Generator: Adobe Illustrator 27.9.1, SVG Export Plug-In . SVG Version: 6.00 Build 0)  -->
<svg version="1.1" id="Layer_1" xmlns="http://www.w3.org/2000/svg" xmlns:xlink="http://www.w3.org/1999/xlink" x="0px" y="0px"
	 viewBox="0 0 273.8 209.5" style="enable-background:new 0 0 273.8 209.5;" xml:space="preserve">
<style type="text/css">
	.st0{fill:#FFFFFF;}
	.st1{fill:#ED4A8C;}
</style>
<g>
	<g>
		<g>
			<g>
				<path d="M15.6,162.4c8.8,0,14.5,4.4,14.6,11.2h-8.8c-0.2-2.8-2.4-4.5-6-4.5c-3.3,0-5.4,1.5-5.4,3.7c0,1.7,1.5,2.9,4.6,3.6
					l6.7,1.4c7,1.6,9.8,4.3,9.8,9.5c0,6.9-6.3,11.4-15.5,11.4c-9.3,0-15.1-4.5-15.6-11.3h9.3c0.5,2.9,2.8,4.6,6.5,4.6
					c3.6,0,5.8-1.4,5.8-3.7c0-1.8-1.2-2.7-4.3-3.5l-6.5-1.4c-6.6-1.5-10-5-10-10.1C0.9,166.8,6.6,162.4,15.6,162.4z"/>
				<path d="M35.8,163.2H45v6.2h0.2c1.9-4.3,5.5-6.9,10.9-6.9c7.8,0,12.1,4.9,12.1,13.1v22.5h-9.5v-20.5c0-4.6-2.2-7.2-6.4-7.2
					s-7,3.1-7,7.7v20h-9.5V163.2z"/>
				<g>
					<rect x="74.4" y="163.2" width="9.5" height="34.9"/>
				</g>
				<rect x="74.4" y="152.1" width="9.5" height="7.9"/>
				<path d="M125,180.7c0,11.2-5.4,18-14.1,18c-5.1,0-9-2.5-10.8-6.4h-0.2v17.3h-9.5v-46.3h9.4v6.1h0.2c1.9-4.1,5.8-6.6,10.8-6.6
					C119.5,162.6,125,169.4,125,180.7z M115.2,180.7c0-6.3-3-10.4-7.8-10.4c-4.7,0-7.7,4.1-7.7,10.4c0,6.3,3.1,10.4,7.7,10.4
					C112.2,191,115.2,187,115.2,180.7z"/>
				<path d="M144,162.4c8.8,0,14.5,4.4,14.6,11.2h-8.8c-0.2-2.8-2.4-4.5-6-4.5c-3.3,0-5.4,1.5-5.4,3.7c0,1.7,1.5,2.9,4.6,3.6
					l6.7,1.4c7,1.6,9.8,4.3,9.8,9.5c0,6.9-6.3,11.4-15.5,11.4c-9.3,0-15.1-4.5-15.6-11.3h9.3c0.5,2.9,2.8,4.6,6.5,4.6
					c3.6,0,5.8-1.4,5.8-3.7c0-1.8-1.2-2.7-4.3-3.5l-6.5-1.4c-6.6-1.5-10-5-10-10.1C129.3,166.8,135,162.4,144,162.4z"/>
				<path d="M164.2,163.2h9.2v6.2h0.2c1.9-4.3,5.5-6.9,10.9-6.9c7.8,0,12.1,4.9,12.1,13.1v22.5h-9.5v-20.5c0-4.6-2.2-7.2-6.4-7.2
					s-7,3.1-7,7.7v20h-9.5V163.2z"/>
				<path d="M201.3,188.1c0-6.4,4.9-10,13.6-10.6l8.8-0.5v-2.3c0-3.3-2.3-5.1-5.9-5.1c-3.6,0-5.8,1.8-6.3,4.3h-8.7
					c0.4-6.8,6.1-11.4,15.4-11.4c9,0,14.8,4.6,14.8,11.7v24h-9.2v-5.3h-0.2c-2,3.7-6.3,5.9-10.7,5.9
					C206.4,198.7,201.3,194.4,201.3,188.1z M223.7,185.3v-2.5l-7.4,0.5c-3.6,0.3-5.6,1.9-5.6,4.3c0,2.6,2.1,4.2,5.4,4.2
					C220.3,191.8,223.7,189.1,223.7,185.3z"/>
				<path d="M273.8,180.7c0,11.2-5.4,18-14.1,18c-5.1,0-9-2.5-10.8-6.4h-0.2v17.3h-9.5v-46.3h9.4v6.1h0.2c1.9-4.1,5.8-6.6,10.8-6.6
					C268.4,162.6,273.8,169.4,273.8,180.7z M264.1,180.7c0-6.3-3-10.4-7.8-10.4c-4.7,0-7.7,4.1-7.7,10.4c0,6.3,3.1,10.4,7.7,10.4
					C261.1,191,264.1,187,264.1,180.7z"/>
			</g>
		</g>
		<path class="st1" d="M167.5,28.2V42c0,3.4-2.8,6.2-6.2,6.2h-16c-3.4,0-6.2,2.8-6.2,6.2v1c0,1.8,0.8,3.5,2.2,4.7L163,78.1
			c2.9,2.4,4.6,6,4.6,9.8v14c0,3.4-2.8,6.2-6.2,6.2h-16c-3.4,0-6.2,2.8-6.2,6.2v11.6c0,3.4-2.8,6.2-6.2,6.2h-16
			c-3.4,0-6.2-2.8-6.2-6.2V112c0-3.4,2.8-6.2,6.2-6.2h16c3.4,0,6.2-2.8,6.2-6.2v0v-1.9c0-1.8-0.8-3.5-2.1-4.7l-24.1-20.7
			c-1.4-1.2-2.1-2.9-2.1-4.7V51.2c0-3.4,2.8-6.2,6.2-6.2h16c3.4,0,6.2-2.8,6.2-6.2V28.2c0-3.4,2.8-6.2,6.2-6.2h16
			C164.8,22,167.5,24.8,167.5,28.2z"/>
	</g>
	<path class="st1" d="M124.1,33.1h-8c-2.2,0-3.9-1.8-3.9-3.9v-8c0-2.2,1.8-3.9,3.9-3.9h8c2.2,0,3.9,1.8,3.9,3.9v8
		C128,31.3,126.2,33.1,124.1,33.1z"/>
	<path class="st1" d="M163.6,133.3h-8c-2.2,0-3.9-1.8-3.9-3.9v-8c0-2.2,1.8-3.9,3.9-3.9h8c2.2,0,3.9,1.8,3.9,3.9v8
		C167.5,131.5,165.8,133.3,163.6,133.3z"/>
	<path class="st1" d="M139.9,0h-5.1c-1.4,0-2.5,1.1-2.5,2.5v5.1c0,1.4,1.1,2.5,2.5,2.5h5.1c1.4,0,2.5-1.1,2.5-2.5V2.5
		C142.3,1.1,141.2,0,139.9,0z"/>
</g>
</svg>
