<?xml version="1.0" encoding="utf-8"?>
<!-- Generator: Adobe Illustrator 27.9.1, SVG Export Plug-In . SVG Version: 6.00 Build 0)  -->
<svg version="1.1" id="Layer_1" xmlns="http://www.w3.org/2000/svg" xmlns:xlink="http://www.w3.org/1999/xlink" x="0px" y="0px"
	 viewBox="0 0 56.7 133.3" style="enable-background:new 0 0 56.7 133.3;" xml:space="preserve">
<style type="text/css">
	.st0{fill:#FFFFFF;}
	.st1{fill:#ED4A8C;}
</style>
<g>
	<g>
		<path class="st1" d="M56.7,28.2V42c0,3.4-2.8,6.2-6.2,6.2h-16c-3.4,0-6.2,2.8-6.2,6.2v1c0,1.8,0.8,3.5,2.2,4.7l21.6,18.1
			c2.9,2.4,4.6,6,4.6,9.8v14c0,3.4-2.8,6.2-6.2,6.2h-16c-3.4,0-6.2,2.8-6.2,6.2v11.6c0,3.4-2.8,6.2-6.2,6.2h-16
			c-3.4,0-6.2-2.8-6.2-6.2L0,112c0-3.4,2.8-6.2,6.2-6.2h16c3.4,0,6.2-2.8,6.2-6.2v0v-1.9c0-1.8-0.8-3.5-2.1-4.7L2.1,72.4
			C0.8,71.2,0,69.5,0,67.7l0-16.5C0,47.8,2.8,45,6.2,45h16c3.4,0,6.2-2.8,6.2-6.2V28.2c0-3.4,2.8-6.2,6.2-6.2h16
			C54,22,56.7,24.8,56.7,28.2z"/>
	</g>
	<path class="st1" d="M13.3,33.1h-8c-2.2,0-3.9-1.8-3.9-3.9v-8c0-2.2,1.8-3.9,3.9-3.9h8c2.2,0,3.9,1.8,3.9,3.9v8
		C17.2,31.3,15.4,33.1,13.3,33.1z"/>
	<path class="st1" d="M52.8,133.3h-8c-2.2,0-3.9-1.8-3.9-3.9v-8c0-2.2,1.8-3.9,3.9-3.9h8c2.2,0,3.9,1.8,3.9,3.9v8
		C56.7,131.5,55,133.3,52.8,133.3z"/>
	<path class="st1" d="M29.1,0H24c-1.4,0-2.5,1.1-2.5,2.5v5.1c0,1.4,1.1,2.5,2.5,2.5h5.1c1.4,0,2.5-1.1,2.5-2.5V2.5
		C31.6,1.1,30.4,0,29.1,0z"/>
</g>
</svg>
