<?xml version="1.0" encoding="utf-8"?>
<!-- Generator: Adobe Illustrator 27.9.1, SVG Export Plug-In . SVG Version: 6.00 Build 0)  -->
<svg version="1.1" id="Layer_1" xmlns="http://www.w3.org/2000/svg" xmlns:xlink="http://www.w3.org/1999/xlink" x="0px" y="0px"
	 viewBox="0 0 326.8 80.3" style="enable-background:new 0 0 326.8 80.3;" xml:space="preserve">
<style type="text/css">
	.st0{fill:#FFFFFF;}
	.st1{fill:#ED4A8C;}
</style>
<g>
	<g>
		<g>
			<g>
				<path d="M68.5,26c8.8,0,14.5,4.4,14.6,11.2h-8.8c-0.2-2.8-2.4-4.5-6-4.5c-3.3,0-5.4,1.5-5.4,3.7c0,1.7,1.5,2.9,4.6,3.6l6.7,1.4
					c7,1.6,9.8,4.3,9.8,9.5c0,6.9-6.3,11.4-15.5,11.4c-9.3,0-15.1-4.5-15.6-11.3h9.3c0.5,2.9,2.8,4.6,6.5,4.6c3.6,0,5.8-1.4,5.8-3.7
					c0-1.8-1.2-2.7-4.3-3.5l-6.5-1.4c-6.6-1.5-10-5-10-10.1C53.8,30.3,59.6,26,68.5,26z"/>
				<path d="M88.8,26.7h9.2v6.2h0.2c1.9-4.3,5.5-6.9,10.9-6.9c7.8,0,12.1,4.9,12.1,13.1v22.5h-9.5V41.1c0-4.6-2.2-7.2-6.4-7.2
					s-7,3.1-7,7.7v20h-9.5V26.7z"/>
				<g>
					<rect x="127.4" y="26.7" width="9.5" height="34.9"/>
				</g>
				<rect x="127.4" y="15.6" width="9.5" height="7.9"/>
				<path d="M177.9,44.2c0,11.2-5.4,18-14.1,18c-5.1,0-9-2.5-10.8-6.4h-0.2V73h-9.5V26.7h9.4v6.1h0.2c1.9-4.1,5.8-6.6,10.8-6.6
					C172.4,26.1,177.9,32.9,177.9,44.2z M168.1,44.2c0-6.3-3-10.4-7.8-10.4c-4.7,0-7.7,4.1-7.7,10.4c0,6.3,3.1,10.4,7.7,10.4
					C165.1,54.5,168.1,50.5,168.1,44.2z"/>
				<path d="M196.9,26c8.8,0,14.5,4.4,14.6,11.2h-8.8c-0.2-2.8-2.4-4.5-6-4.5c-3.3,0-5.4,1.5-5.4,3.7c0,1.7,1.5,2.9,4.6,3.6l6.7,1.4
					c7,1.6,9.8,4.3,9.8,9.5c0,6.9-6.3,11.4-15.5,11.4c-9.3,0-15.1-4.5-15.6-11.3h9.3c0.5,2.9,2.8,4.6,6.5,4.6c3.6,0,5.8-1.4,5.8-3.7
					c0-1.8-1.2-2.7-4.3-3.5l-6.5-1.4c-6.6-1.5-10-5-10-10.1C182.2,30.3,187.9,26,196.9,26z"/>
				<path d="M217.1,26.7h9.2v6.2h0.2c1.9-4.3,5.5-6.9,10.9-6.9c7.8,0,12.1,4.9,12.1,13.1v22.5H240V41.1c0-4.6-2.2-7.2-6.4-7.2
					s-7,3.1-7,7.7v20h-9.5V26.7z"/>
				<path d="M254.2,51.6c0-6.4,4.9-10,13.6-10.6l8.8-0.5v-2.3c0-3.3-2.3-5.1-5.9-5.1c-3.6,0-5.8,1.8-6.3,4.3h-8.7
					c0.4-6.8,6.1-11.4,15.4-11.4c9,0,14.8,4.6,14.8,11.7v24h-9.2v-5.3h-0.2c-2,3.7-6.3,5.9-10.7,5.9
					C259.3,62.2,254.2,57.9,254.2,51.6z M276.6,48.8v-2.5l-7.4,0.5c-3.6,0.3-5.6,1.9-5.6,4.3c0,2.6,2.1,4.2,5.4,4.2
					C273.2,55.3,276.6,52.6,276.6,48.8z"/>
				<path d="M326.8,44.2c0,11.2-5.4,18-14.1,18c-5.1,0-9-2.5-10.8-6.4h-0.2V73h-9.5V26.7h9.4v6.1h0.2c1.9-4.1,5.8-6.6,10.8-6.6
					C321.3,26.1,326.8,32.9,326.8,44.2z M317,44.2c0-6.3-3-10.4-7.8-10.4c-4.7,0-7.7,4.1-7.7,10.4c0,6.3,3.1,10.4,7.7,10.4
					C314,54.5,317,50.5,317,44.2z"/>
			</g>
		</g>
		<path class="st1" d="M34.2,17v8.3c0,2.1-1.7,3.7-3.7,3.7h-9.6c-2.1,0-3.7,1.7-3.7,3.7v0.6c0,1.1,0.5,2.1,1.3,2.8l13,10.9
			c1.7,1.5,2.8,3.6,2.8,5.9v8.4c0,2.1-1.7,3.7-3.7,3.7h-9.7c-2.1,0-3.7,1.7-3.7,3.7v7c0,2.1-1.7,3.7-3.7,3.7H3.7
			c-2.1,0-3.7-1.7-3.7-3.7l0-8.3c0-2.1,1.7-3.7,3.7-3.7h9.7c2.1,0,3.7-1.7,3.7-3.7v0v-1.2c0-1.1-0.5-2.1-1.3-2.8L1.3,43.6
			C0.5,42.9,0,41.9,0,40.8l0-10c0-2.1,1.7-3.7,3.7-3.7h9.7c2.1,0,3.7-1.7,3.7-3.7V17c0-2.1,1.7-3.7,3.7-3.7h9.7
			C32.5,13.3,34.2,14.9,34.2,17z"/>
	</g>
	<path class="st1" d="M6.4,19.9H4.7c-2.2,0-3.9-1.8-3.9-3.9v-1.7c0-2.2,1.8-3.9,3.9-3.9h1.7c2.2,0,3.9,1.8,3.9,3.9V16
		C10.4,18.2,8.6,19.9,6.4,19.9z"/>
	<path class="st1" d="M30.2,80.3h-1.7c-2.2,0-3.9-1.8-3.9-3.9v-1.7c0-2.2,1.8-3.9,3.9-3.9h1.7c2.2,0,3.9,1.8,3.9,3.9v1.7
		C34.2,78.6,32.4,80.3,30.2,80.3z"/>
	<path class="st1" d="M17.5,0h-3C13.6,0,13,0.7,13,1.5v3c0,0.8,0.7,1.5,1.5,1.5h3c0.8,0,1.5-0.7,1.5-1.5v-3C19,0.7,18.3,0,17.5,0z"
		/>
</g>
</svg>
