<svg width="13" height="15" viewBox="0 0 13 15" fill="none" xmlns="http://www.w3.org/2000/svg">
<g clip-path="url(#clip0_1_737)">
<path d="M1.97003 14.29C1.99003 14.69 2.32003 15 2.72003 15H10.33C10.73 15 11.06 14.69 11.08 14.29L11.65 4.69H1.41003L1.97003 14.29ZM8.97003 6.02C8.97003 5.83 9.17003 5.69 9.35003 5.68C9.42003 5.68 9.51003 5.72 9.57003 5.79C9.63003 5.86 9.67003 5.95 9.67003 6.04L9.47003 12.84C9.47003 13.03 9.31003 13.18 9.12003 13.18H9.10003C8.91003 13.18 8.76003 13.01 8.77003 12.82L8.97003 6.02ZM6.17003 6.03C6.17003 5.84 6.33003 5.68 6.52003 5.68C6.71003 5.68 6.87003 5.84 6.87003 6.03V12.83C6.87003 13.02 6.71003 13.18 6.52003 13.18C6.33003 13.18 6.17003 13.02 6.17003 12.83V6.03ZM3.46003 5.79C3.52003 5.72 3.61003 5.68 3.70003 5.68C3.86003 5.69 4.05003 5.82 4.06003 6.02L4.26003 12.82C4.26003 13.01 4.11003 13.17 3.92003 13.18H3.91003C3.72003 13.18 3.57003 13.03 3.56003 12.84L3.36003 6.04C3.36003 5.95 3.39003 5.86 3.46003 5.79Z" fill="#020302"/>
<path d="M12.17 1.9H9.83001V1.55C9.83001 0.7 9.14001 0 8.28001 0H4.77001C3.92001 0 3.22001 0.69 3.22001 1.55V1.9H0.700015C0.390015 1.9 0.140015 2.15 0.140015 2.46V3.43C0.140015 3.74 0.390015 3.99 0.700015 3.99H12.17C12.48 3.99 12.73 3.74 12.73 3.43V2.46C12.73 2.15 12.48 1.9 12.17 1.9ZM4.37001 1.55C4.37001 1.33 4.55001 1.15 4.77001 1.15H8.28001C8.50002 1.15 8.68001 1.33 8.68001 1.55V1.83H4.37001V1.55Z" fill="#020302"/>
</g>
<defs>
<clipPath id="clip0_1_737">
<rect width="12.59" height="15" fill="white" transform="translate(0.140015)"/>
</clipPath>
</defs>
</svg>
