<svg width="15" height="15" viewBox="0 0 15 15" fill="none" xmlns="http://www.w3.org/2000/svg">
<g clip-path="url(#clip0_4_595)">
<path d="M8.9098 11.0883C9.12405 11.0511 9.3434 11.0192 9.5602 10.9748C10.0351 10.877 10.4903 10.7198 10.903 10.453C11.4803 10.0799 11.8598 9.55027 12.0741 8.89084C12.2165 8.45317 12.2756 8.00116 12.2947 7.54131C12.3106 7.16039 12.2864 6.78534 12.1853 6.41682C12.069 5.9935 11.8668 5.6178 11.5858 5.28711C11.5496 5.24471 11.5349 5.20949 11.554 5.15274C11.7384 4.5931 11.7155 4.03216 11.554 3.47252C11.526 3.37664 11.4923 3.28206 11.4618 3.19009C11.3099 3.14117 11.1668 3.16661 11.0257 3.19205C10.7606 3.23901 10.5113 3.3362 10.2691 3.45361C9.9919 3.58797 9.72741 3.74451 9.47373 3.91997C9.41969 3.95715 9.37264 3.96693 9.30779 3.94867C8.56393 3.74451 7.80671 3.67929 7.03996 3.72821C6.60064 3.75625 6.16703 3.828 5.74169 3.94671C5.66858 3.96693 5.61581 3.95454 5.55605 3.91345C5.25787 3.70799 4.9457 3.52862 4.61382 3.38512C4.37031 3.2801 4.11982 3.19727 3.85469 3.17248C3.8477 3.17183 3.84071 3.17053 3.83371 3.16987C3.60293 3.14704 3.58322 3.15878 3.51201 3.38512C3.34225 3.92519 3.29966 4.47113 3.44525 5.02555C3.45415 5.06012 3.4656 5.09469 3.4764 5.12926C3.48594 5.15992 3.49611 5.19057 3.50501 5.21731C3.42491 5.32363 3.34289 5.42343 3.27041 5.52909C2.89594 6.07569 2.7319 6.68816 2.74081 7.35281C2.74526 7.69198 2.76878 8.02985 2.83172 8.36381C2.94171 8.94693 3.15088 9.48374 3.53871 9.9351C3.89411 10.3486 4.34107 10.6193 4.84334 10.8C5.20955 10.9318 5.58784 11.0107 5.97185 11.0629C6.02398 11.07 6.07612 11.0779 6.12825 11.0857C6.12634 11.0968 6.12825 11.1059 6.1238 11.1098C5.87267 11.3629 5.74678 11.6799 5.68893 12.0275C5.67685 12.0993 5.64633 12.1313 5.58466 12.1554C5.27885 12.2754 4.96541 12.3452 4.63543 12.3054C4.2616 12.2604 3.95515 12.0843 3.71101 11.7947C3.62899 11.6969 3.55778 11.5886 3.48848 11.4803C3.35052 11.2638 3.18903 11.0707 2.98304 10.9194C2.73572 10.738 2.4636 10.65 2.15779 10.7113C1.97405 10.7478 1.94099 10.8463 2.07006 10.9852C2.13236 11.0524 2.20421 11.1157 2.28304 11.16C2.45343 11.2579 2.5844 11.3962 2.69757 11.554C2.87241 11.7986 3.02436 12.0569 3.13499 12.3406C3.32127 12.8187 3.68367 13.0842 4.15796 13.2049C4.48603 13.2884 4.81981 13.2897 5.1536 13.2584C5.31063 13.2434 5.46704 13.2192 5.6298 13.1984C5.63234 13.2297 5.63616 13.2571 5.63616 13.2851C5.63933 13.7143 5.64251 14.1435 5.64378 14.5727C5.64378 14.6301 5.64061 14.6894 5.62598 14.7436C5.58466 14.8929 5.46767 14.9888 5.30618 14.9966C5.22735 15.0005 5.14279 14.9908 5.0684 14.9647C3.67604 14.4716 2.52146 13.6321 1.60721 12.4483C0.828374 11.4392 0.332464 10.2971 0.113755 9.03042C-0.00640805 8.33315 -0.0305678 7.63263 0.0374609 6.92819C0.117569 6.09917 0.322291 5.30537 0.654169 4.54614C1.01148 3.72886 1.49467 2.99898 2.10057 2.3539C2.64671 1.77273 3.26596 1.29006 3.9596 0.909143C4.64561 0.532137 5.37231 0.270582 6.13906 0.127737C6.69791 0.0227232 7.26185 -0.0183692 7.8296 0.00706894C8.82142 0.0520748 9.76874 0.286888 10.6684 0.716727C11.486 1.10743 12.2114 1.63446 12.8446 2.29389C13.4073 2.87897 13.8676 3.5397 14.223 4.2761C14.5829 5.02164 14.8181 5.80696 14.9287 6.63206C15.019 7.3078 15.0241 7.98354 14.9415 8.65994C14.8435 9.45569 14.6287 10.2175 14.2974 10.9455C13.9134 11.7875 13.3984 12.5344 12.7525 13.1853C11.9495 13.9935 11.0168 14.589 9.95248 14.9653C9.89399 14.9862 9.82977 14.9986 9.76747 15.0005C9.5246 15.0077 9.3771 14.859 9.37582 14.6098C9.37455 14.3535 9.3771 14.0978 9.37773 13.8415C9.379 13.4808 9.38091 13.1201 9.38091 12.7594C9.38091 12.5937 9.38345 12.4274 9.37328 12.2624C9.35611 11.9786 9.29381 11.7047 9.15648 11.4555C9.08654 11.3283 8.99499 11.2135 8.9098 11.0889V11.0883Z" fill="black"/>
</g>
<defs>
<clipPath id="clip0_4_595">
<rect width="15" height="15" fill="white"/>
</clipPath>
</defs>
</svg>
