<svg width="15" height="15" viewBox="0 0 15 15" fill="none" xmlns="http://www.w3.org/2000/svg">
<path d="M14.9002 7.69995C14.9002 7.09995 14.8002 6.59995 14.7002 6.19995H7.7002V8.99995H11.8002C11.7002 9.69995 11.3002 10.7 10.3002 11.4V11.5L12.5002 13.2H12.7002C14.0002 11.9 14.9002 9.89995 14.9002 7.69995Z" fill="#4285F4"/>
<path d="M7.7 15C9.7 15 11.4 14.3 12.7 13.2L10.3 11.4C9.7 11.8 8.8 12.2 7.7 12.2C5.7 12.2 4 10.9 3.4 9.1L3.3 9L1 10.8V10.9C2.2 13.3 4.7 15 7.7 15Z" fill="#34A853"/>
<path d="M3.4001 8.99998C3.2001 8.49998 3.1001 7.99998 3.1001 7.49998C3.1001 6.99998 3.2001 6.49998 3.3001 5.99998V5.89998L1.0001 4.09998H0.900098C0.400098 5.09998 0.100098 6.29998 0.100098 7.49998C0.100098 8.69998 0.400098 9.79998 0.900098 10.9L3.4001 8.99998Z" fill="#FBBC05"/>
<path d="M7.6999 2.9C9.0999 2.9 10.0999 3.5 10.5999 4L12.6999 2C11.3999 0.8 9.6999 0 7.6999 0C4.6999 0 2.1999 1.7 0.899902 4.1L3.3999 6C3.9999 4.2 5.6999 2.9 7.6999 2.9Z" fill="#EB4335"/>
</svg>
