<svg width="15" height="15" viewBox="0 0 15 15" fill="none" xmlns="http://www.w3.org/2000/svg">
<g clip-path="url(#clip0_114_453)">
<path d="M14.2 6.2L12.6 5.8C12.3 5.7 12.2 5.4 12.3 5.2L13.1 3.8C13.2 3.6 13.2 3.4 13 3.3L11.7 2C11.6 1.9 11.3 1.8 11.2 1.9L9.9 2.7C9.7 2.8 9.3 2.7 9.3 2.4L8.8 0.8C8.8 0.7 8.6 0.5 8.4 0.5H6.6C6.4 0.5 6.2 0.6 6.2 0.8L5.8 2.4C5.7 2.7 5.4 2.8 5.1 2.7L3.7 1.9C3.5 1.8 3.3 1.8 3.2 1.9L1.9 3.2C1.8 3.3 1.8 3.5 1.9 3.7L2.7 5.1C2.8 5.3 2.7 5.7 2.4 5.7L0.8 6.2C0.7 6.2 0.5 6.4 0.5 6.6V8.4C0.5 8.6 0.6 8.8 0.8 8.8L2.4 9.2C2.7 9.3 2.8 9.6 2.7 9.8L1.9 11.2C1.8 11.4 1.8 11.6 2 11.7L3.3 13C3.4 13.1 3.7 13.2 3.8 13.1L5.2 12.3C5.4 12.2 5.8 12.3 5.8 12.6L6.2 14.2C6.3 14.4 6.4 14.5 6.6 14.5H8.4C8.6 14.5 8.8 14.4 8.8 14.2L9.2 12.6C9.3 12.3 9.6 12.2 9.8 12.3L11.2 13.1C11.4 13.2 11.6 13.2 11.7 13L13 11.7C13.1 11.6 13.2 11.3 13.1 11.2L12.3 9.8C12.2 9.6 12.3 9.2 12.6 9.2L14.2 8.8C14.4 8.7 14.5 8.6 14.5 8.4V6.6C14.5 6.4 14.3 6.2 14.2 6.2Z" stroke="black" stroke-miterlimit="10" stroke-linecap="round" stroke-linejoin="round"/>
<path d="M7.4999 9.60002C8.6597 9.60002 9.5999 8.65982 9.5999 7.50002C9.5999 6.34023 8.6597 5.40002 7.4999 5.40002C6.3401 5.40002 5.3999 6.34023 5.3999 7.50002C5.3999 8.65982 6.3401 9.60002 7.4999 9.60002Z" stroke="black" stroke-miterlimit="10" stroke-linecap="round" stroke-linejoin="round"/>
</g>
<defs>
<clipPath id="clip0_114_453">
<rect width="15" height="15" fill="white"/>
</clipPath>
</defs>
</svg>
